<svg width='24' height='24' xmlns='http://www.w3.org/2000/svg'>
	<symbol id='home' viewBox='0 0 512 512'>
		<path fill='currentColor' d="m105 390v-390c-33.084 0-60 26.916-60 60v345.041c12.544-9.438 28.129-15.041 45-15.041z"/>
		<path fill='currentColor' d="m90 420c-24.853 0-45 20.147-45 45 0 24.853 20.147 45 45 45h375v-30h-30v-30h30v-30c-48.015 0-328.74 0-375 0z"/>
		<path fill='currentColor' d="m300 182.006 62.394-62.393c10.166-10.167 10.167-26.619 0-36.787-10.143-10.142-26.645-10.142-36.787.001l-25.607 25.606-25.606-25.607c-10.167-10.166-26.62-10.166-36.787 0-10.142 10.142-10.142 26.645 0 36.787z"/>
		<path fill='currentColor' d="m135 0v390h330v-390zm81.394 61.613c21.888-21.889 57.321-21.893 79.213 0l4.393 4.393 4.394-4.393c21.84-21.839 57.373-21.838 79.213 0 21.891 21.889 21.893 57.319 0 79.213l-83.607 83.607-83.606-83.607c-21.889-21.889-21.892-57.32 0-79.213zm188.606 283.18h-210v-30h210zm0-60h-210v-30h210z"/>
	</symbol>
	<symbol id='stopwatch' viewBox='0 0 512 512'>
		<path fill='currentColor' d='M196,40h120c11.046,0,20-8.954,20-20s-8.954-20-20-20H196c-11.046,0-20,8.954-20,20S184.954,40,196,40z'/>
		<path fill='currentColor' d='M312.569,207.147l-70.71,70.71c-7.811,7.81-7.812,20.473-0.001,28.284c7.813,7.812,20.475,7.809,28.285,0l70.71-70.71
		c7.811-7.81,7.812-20.473,0.001-28.284C333.043,199.337,320.381,199.338,312.569,207.147z'/>
		<path fill='currentColor' d='M256,72C134.413,72,36,170.396,36,292c0,121.587,98.395,220,220,220c121.59,0,220-98.398,220-220
		C476,170.413,377.604,72,256,72z M256,472c-99.252,0-180-80.748-180-180s80.748-180,180-180s180,80.748,180,180
		S355.252,472,256,472z'/>
	</symbol>
	<symbol id='servings' viewBox='0 0 512 512'>
		<path fill='currentColor' d='M155.183,305.646c-2.081,0.175-4.157,0.265-6.238,0.265c-5.693,0-11.23-0.826-16.652-2.081L6.834,429.293c-6.158,6.149-6.158,16.137,0,22.287l32.47,32.478c6.158,6.15,16.135,6.15,22.276,0l150.785-150.757l-27.944-30.15L155.183,305.646z'/>
		<path fill='currentColor' d='M485.345,104.649c-5.888-5.885-15.417-5.885-21.304,0l-81.303,81.301c-7.693,7.685-20.154,7.685-27.847,0c-7.659-7.679-7.659-20.13,0-27.807l80.901-80.884c6.112-6.118,6.112-16.036,0-22.168c-6.141-6.11-16.055-6.11-22.167,0l-80.868,80.876c-7.693,7.693-20.14,7.693-27.833,0c-7.677-7.676-7.677-20.136,0-27.806l81.286-81.293c5.904-5.894,5.904-15.441,0-21.343c-5.888-5.895-15.434-5.895-21.338,0l-91.458,91.463c-21.989,22.003-28.935,52.888-21.816,80.991l61.31,61.314c28.101,7.093,59.001,0.144,80.965-21.841l91.471-91.458C491.249,120.1,491.249,110.543,485.345,104.649z'/>
		<path fill='currentColor' d='M41.093,13.791c-3.134-3.135-7.372-4.854-11.724-4.854c-0.926,0-1.857,0.079-2.766,0.231c-5.295,0.896-9.838,4.295-12.172,9.133c-26.79,55.373-15.594,121.631,27.894,165.121l77.801,77.791c7.676,7.685,18.055,11.939,28.819,11.939c1.151,0,2.305-0.048,3.456-0.143l45.171-3.855l196.971,212.489c3.058,3.303,7.342,5.221,11.855,5.31c0.093,0,0.19,0,0.288,0c4.412,0,8.636-1.743,11.771-4.855l33.734-33.741c3.117-3.11,4.859-7.331,4.859-11.73c0-4.398-1.742-8.622-4.846-11.732L41.093,13.791z'/>
	</symbol>
	<symbol id='oven' viewBox='0 0 512 512'>
		<path fill='currentColor' d='m497 0h-482c-8.284 0-15 6.716-15 15v482c0 8.284 6.716 15 15 15h482c8.284 0 15-6.716 15-15v-482c0-8.284-6.716-15-15-15zm-15 482h-452v-323.467h34.267v274.2c0 8.284 6.716 15 15 15h353.467c8.284 0 15-6.716 15-15v-274.2h34.266zm-387.733-64.267v-259.2h323.467v259.2zm387.733-289.2h-452v-98.533h452z'/>
		<circle cx='111.4' cy='79.267' r='15'/>
		<circle cx='304.2' cy='79.267' r='15'/>
		<circle cx='207.8' cy='79.267' r='15'/>
		<circle cx='400.6' cy='79.267' r='15'/>
		<path fill='currentColor' d='m368.467 192.8h-224.934c-8.284 0-15 6.716-15 15s6.716 15 15 15h224.934c8.284 0 15-6.716 15-15s-6.716-15-15-15z'/>
	</symbol>
</svg>